P2
# CREATOR: GIMP PNM Filter Version 1.1
17 14
255
0
0
0
0
0
0
0
0
0
0
0
0
0
0
0
0
0
0
51
51
255
255
255
255
255
0
0
0
0
255
255
0
0
0
0
0
0
255
255
255
255
255
204
204
204
204
255
255
204
204
0
0
51
51
255
255
255
255
255
255
255
255
255
255
255
255
255
0
0
51
51
204
51
0
51
51
0
51
204
204
204
51
0
51
0
0
0
0
204
51
0
51
51
0
51
204
204
204
51
0
51
0
0
51
51
255
255
255
255
255
255
255
255
255
255
51
0
51
0
0
51
51
255
255
255
255
255
255
255
255
255
255
255
255
255
0
0
0
0
204
51
0
51
51
0
51
51
0
51
51
0
51
0
0
51
51
204
51
0
51
51
0
51
51
0
51
51
0
51
0
0
51
51
204
204
204
204
204
204
204
204
204
204
204
204
204
0
0
0
0
204
51
0
51
51
0
51
51
0
51
51
0
51
0
0
51
51
204
51
0
51
51
0
51
51
0
51
51
0
51
0
0
0
0
0
0
0
0
0
0
0
0
0
0
0
0
0
0
