P2
# Created by GIMP version 2.10.30 PNM plug-in
21 21
255
0
0
0
0
0
0
0
0
0
0
0
0
0
0
0
0
0
0
0
0
0
0
51
51
204
0
255
51
0
51
51
0
51
51
0
51
51
0
51
0
51
0
0
0
0
204
0
255
51
0
51
51
0
51
51
0
51
51
0
51
0
51
0
0
51
51
204
255
255
255
255
255
255
255
255
255
255
255
255
255
255
255
255
0
0
51
51
204
0
255
255
255
255
255
255
255
255
255
255
255
255
255
255
255
0
0
0
0
204
0
51
0
51
51
0
51
204
255
51
51
204
51
51
51
51
0
0
51
51
204
0
51
0
51
51
0
51
204
255
0
0
204
0
0
0
0
0
0
51
51
204
0
255
255
255
255
255
255
255
255
51
51
204
51
51
51
51
0
0
0
0
204
255
255
255
255
255
255
255
255
255
51
51
204
51
51
51
51
0
0
51
51
204
0
255
255
255
255
255
255
255
255
0
0
204
0
0
0
0
0
0
51
51
204
0
51
0
51
51
0
51
204
255
51
51
204
51
51
51
51
0
0
0
0
204
0
51
0
51
51
0
51
204
255
51
51
204
255
255
255
255
0
0
51
51
204
0
255
255
255
255
255
255
255
255
0
0
204
255
51
0
51
0
0
51
51
204
255
255
255
255
255
255
255
255
255
51
51
204
204
51
0
51
0
0
0
0
204
0
0
0
0
0
0
255
255
0
0
0
0
204
0
0
0
0
0
51
51
204
255
255
255
255
255
255
255
255
255
255
255
255
255
255
255
255
0
0
0
0
204
204
204
204
204
204
204
255
255
255
255
255
255
255
255
255
255
0
0
0
51
204
204
204
204
204
204
204
255
204
204
204
255
204
204
204
255
255
0
0
0
51
51
51
51
51
51
51
0
255
204
204
204
255
204
204
204
255
255
0
0
0
0
0
0
0
0
0
0
0
255
0
0
0
255
0
0
0
255
255
0
0
0
0
0
0
0
0
0
0
0
0
0
0
0
0
0
0
0
0
0
0
